<svg width="80" height="80" viewBox="0 0 80 80" fill="none" xmlns="http://www.w3.org/2000/svg">
<path fill-rule="evenodd" clip-rule="evenodd" d="M40 2C23.4423 2 10 15.4423 10 32C10 48.5577 23.4423 62 40 62C56.5577 62 70 48.5577 70 32C70 15.4423 56.5577 2 40 2ZM40 6C54.3497 6 66 17.6503 66 32C66 46.3497 54.3497 58 40 58C25.6503 58 14 46.3497 14 32C14 17.6503 25.6503 6 40 6ZM37.1719 32L27.2719 41.9C26.492 42.6799 26.492 43.9482 27.2719 44.7281C28.0518 45.508 29.3201 45.508 30.1 44.7281L40 34.8281L49.9 44.7281C50.6799 45.508 51.9482 45.508 52.7281 44.7281C53.508 43.9482 53.508 42.6799 52.7281 41.9L42.8281 32L52.7281 22.1C53.508 21.3201 53.508 20.0518 52.7281 19.2719C51.9482 18.492 50.6799 18.492 49.9 19.2719L40 29.1719L30.1 19.2719C29.3201 18.492 28.0518 18.492 27.2719 19.2719C26.492 20.0518 26.492 21.3201 27.2719 22.1L37.1719 32Z" fill="white"/>
</svg>
