<svg width="50" height="50" viewBox="0 0 50 50" fill="none" xmlns="http://www.w3.org/2000/svg">
<path d="M10.9375 3.125C6.64067 3.125 3.125 6.64067 3.125 10.9375V35.9375C3.125 40.2343 6.64067 43.75 10.9375 43.75H35.9375C40.2343 43.75 43.75 40.2343 43.75 35.9375V10.9375C43.75 6.64067 40.2343 3.125 35.9375 3.125H10.9375ZM10.9375 6.25H35.9375C38.5469 6.25 40.625 8.32808 40.625 10.9375V35.9375C40.625 38.5469 38.5469 40.625 35.9375 40.625H30.9509V28.0212H35.3149L35.968 22.9919H30.9509V19.7876C30.9509 18.3313 31.3563 17.3401 33.4595 17.3401H36.145V12.8418C35.6794 12.7793 34.0858 12.6465 32.2327 12.6465C28.3639 12.6465 25.7202 14.9871 25.7202 19.2871V22.9919L21.875 22.9797V28.009L25.7202 28.0212V40.625H10.9375C8.32808 40.625 6.25 38.5469 6.25 35.9375V10.9375C6.25 8.32808 8.32808 6.25 10.9375 6.25Z" fill="white"/>
</svg>
