<svg width="50" height="50" viewBox="0 0 50 50" fill="none" xmlns="http://www.w3.org/2000/svg">
<path d="M14.917 3.125C8.42285 3.125 3.125 8.42285 3.125 14.917V31.9702C3.125 38.4521 8.42285 43.75 14.917 43.75H31.9702C38.4521 43.75 43.75 38.4522 43.75 31.958V14.917C43.75 8.42285 38.4522 3.125 31.958 3.125H14.917ZM14.917 6.25H31.958C36.7676 6.25 40.625 10.1074 40.625 14.917V31.958C40.625 36.7676 36.7676 40.625 31.9702 40.625H14.917C10.1074 40.625 6.25 36.7676 6.25 31.9702V14.917C6.25 10.1074 10.1074 6.25 14.917 6.25ZM35.9375 9.375C35.0708 9.375 34.375 10.0708 34.375 10.9375C34.375 11.8042 35.0708 12.5 35.9375 12.5C36.8042 12.5 37.5 11.8042 37.5 10.9375C37.5 10.0708 36.8042 9.375 35.9375 9.375ZM23.4375 12.5C17.4194 12.5 12.5 17.4194 12.5 23.4375C12.5 29.4556 17.4194 34.375 23.4375 34.375C29.4556 34.375 34.375 29.4556 34.375 23.4375C34.375 17.4194 29.4556 12.5 23.4375 12.5ZM23.4375 15.625C27.771 15.625 31.25 19.104 31.25 23.4375C31.25 27.771 27.771 31.25 23.4375 31.25C19.104 31.25 15.625 27.771 15.625 23.4375C15.625 19.104 19.104 15.625 23.4375 15.625Z" fill="white"/>
</svg>
